<svg xmlns="http://www.w3.org/2000/svg" width="960" height="600" viewBox="0 0 960 600" role="img" aria-label="Placeholder rotas">
  <defs>
    <linearGradient id="bg" x1="0" y1="0" x2="1" y2="1">
      <stop offset="0%" stop-color="#222228"/>
      <stop offset="100%" stop-color="#1a1a1f"/>
    </linearGradient>
  </defs>
  <rect width="960" height="600" fill="url(#bg)"/>
  <rect x="24" y="24" width="912" height="40" rx="8" fill="#2a2a32"/>
  <rect x="40" y="36" width="90" height="16" rx="4" fill="#49cc90" opacity="0.85"/>
  <rect x="24" y="84" width="912" height="64" rx="10" fill="#2a2a32"/>
  <rect x="24" y="164" width="912" height="64" rx="10" fill="#2a2a32"/>
  <rect x="24" y="244" width="912" height="64" rx="10" fill="#2a2a32"/>
  <rect x="24" y="324" width="912" height="64" rx="10" fill="#2a2a32"/>
  <g fill="#9898a4">
    <rect x="48" y="108" width="220" height="14" rx="3"/>
    <rect x="48" y="188" width="260" height="14" rx="3"/>
    <rect x="48" y="268" width="200" height="14" rx="3"/>
    <rect x="48" y="348" width="240" height="14" rx="3"/>
  </g>
  <g fill="#49cc90" opacity="0.7">
    <rect x="800" y="108" width="100" height="16" rx="8"/>
    <rect x="800" y="188" width="100" height="16" rx="8"/>
    <rect x="800" y="268" width="100" height="16" rx="8"/>
    <rect x="800" y="348" width="100" height="16" rx="8"/>
  </g>
  <text x="48" y="560" fill="#49cc90" font-family="Segoe UI, sans-serif" font-size="14">public/screenshots/routes.png</text>
</svg>
