<svg xmlns="http://www.w3.org/2000/svg" width="960" height="600" viewBox="0 0 960 600" role="img" aria-label="Placeholder tráfego">
  <defs>
    <linearGradient id="bg" x1="0" y1="0" x2="1" y2="1">
      <stop offset="0%" stop-color="#222228"/>
      <stop offset="100%" stop-color="#1a1a1f"/>
    </linearGradient>
  </defs>
  <rect width="960" height="600" fill="url(#bg)"/>
  <rect x="24" y="24" width="912" height="40" rx="8" fill="#2a2a32"/>
  <rect x="40" y="36" width="120" height="16" rx="4" fill="#49cc90" opacity="0.85"/>
  <rect x="24" y="80" width="280" height="496" rx="10" fill="#2a2a32"/>
  <rect x="320" y="80" width="616" height="496" rx="10" fill="#2a2a32"/>
  <g fill="#68687a">
    <rect x="44" y="104" width="200" height="12" rx="3"/>
    <rect x="44" y="136" width="240" height="12" rx="3"/>
    <rect x="44" y="168" width="180" height="12" rx="3"/>
    <rect x="44" y="200" width="220" height="12" rx="3"/>
  </g>
  <g fill="#9898a4">
    <rect x="344" y="112" width="280" height="14" rx="3"/>
    <rect x="344" y="148" width="520" height="10" rx="3" opacity="0.7"/>
    <rect x="344" y="172" width="480" height="10" rx="3" opacity="0.55"/>
    <rect x="344" y="196" width="500" height="10" rx="3" opacity="0.45"/>
  </g>
  <text x="48" y="560" fill="#49cc90" font-family="Segoe UI, sans-serif" font-size="14">public/screenshots/traffic.png</text>
</svg>
